<svg width="2214" height="2214" viewBox="0 0 2214 2214" fill="none" xmlns="http://www.w3.org/2000/svg">
<path fill-rule="evenodd" clip-rule="evenodd" d="M1107.46 1815.54C1499.03 1815.54 1816.47 1498.11 1816.47 1106.54C1816.47 714.966 1499.03 397.534 1107.46 397.534C715.888 397.534 398.456 714.966 398.456 1106.54C398.456 1498.11 715.888 1815.54 1107.46 1815.54ZM1107.46 1591.5C1375.3 1591.5 1592.43 1374.38 1592.43 1106.54C1592.43 838.701 1375.3 621.574 1107.46 621.574C839.622 621.574 622.496 838.701 622.496 1106.54C622.496 1374.38 839.622 1591.5 1107.46 1591.5Z" fill="url(#paint0_radial_528_41)" fill-opacity="0.08"/>
<path fill-rule="evenodd" clip-rule="evenodd" d="M1107.46 2213.08C1718.59 2213.08 2214 1717.66 2214 1106.54C2214 495.414 1718.59 0 1107.46 0C496.336 0 0.921875 495.414 0.921875 1106.54C0.921875 1717.66 496.336 2213.08 1107.46 2213.08ZM1107.46 1863.42C1525.48 1863.42 1864.34 1524.55 1864.34 1106.54C1864.34 688.525 1525.48 349.658 1107.46 349.658C689.447 349.658 350.58 688.525 350.58 1106.54C350.58 1524.55 689.447 1863.42 1107.46 1863.42Z" fill="url(#paint1_radial_528_41)" fill-opacity="0.08"/>
<g clip-path="url(#clip0_528_41)">
<path d="M1305.23 1091.72C1305.23 1055.52 1292.21 1030.46 1281.07 1010.95L1277.66 1005.4C1264.12 983.632 1252.3 964.506 1252.3 942.222C1252.3 915.327 1272.7 890.225 1301.48 890.225C1302.33 890.225 1303.14 890.31 1303.95 890.353L1305.28 890.481C1251.32 840.923 1180.71 813.463 1107.45 813.552C1058.9 813.528 1011.1 825.584 968.367 848.634C925.634 871.685 889.308 905.006 862.662 945.594C869.492 945.808 876.024 945.979 881.531 945.979C912.14 945.979 959.569 942.264 959.569 942.264C975.365 941.325 977.243 964.506 961.448 966.385C961.448 966.385 945.609 968.263 927.936 969.16L1034.66 1286.52L1098.7 1094.16L1053.02 969.117C1037.27 968.178 1022.32 966.342 1022.32 966.342C1006.53 965.403 1008.41 941.24 1024.16 942.179C1024.16 942.179 1072.57 945.893 1101.34 945.893C1132 945.893 1179.47 942.179 1179.47 942.179C1195.26 941.24 1197.1 964.464 1181.3 966.342C1181.3 966.342 1165.42 968.178 1147.79 969.117L1253.66 1284.05L1282.86 1186.41L1285.17 1179.03C1296.7 1142.31 1305.19 1115.2 1305.19 1091.68L1305.23 1091.72ZM814.464 1106.54C814.461 1161.55 829.947 1215.46 859.15 1262.09C888.352 1308.72 930.091 1346.18 979.591 1370.19L839.78 987.26C823.038 1024.79 814.411 1065.44 814.464 1106.54V1106.54Z" fill="#09565B" fill-opacity="0.16"/>
<path d="M1024.67 1387.57L1112.61 1132.15L1202.64 1378.91C1203.24 1380.31 1203.92 1381.64 1204.73 1382.92C1146.69 1403.37 1083.68 1404.99 1024.67 1387.57V1387.57ZM1364.48 965.96C1365.76 975.31 1366.49 985.299 1366.49 996.1C1366.49 1025.81 1360.94 1059.24 1344.2 1101.03L1254.72 1359.74C1320.75 1321.37 1369.19 1258.74 1389.7 1185.18C1410.21 1111.62 1401.18 1032.96 1364.52 965.96H1364.48Z" fill="#09565B" fill-opacity="0.16"/>
<path fill-rule="evenodd" clip-rule="evenodd" d="M765.937 1106.54C765.937 918.231 919.153 765.015 1107.46 765.015C1295.73 765.015 1448.99 918.231 1448.99 1106.54C1448.99 1294.85 1295.73 1448.06 1107.46 1448.06C919.153 1448.06 765.937 1294.85 765.937 1106.54ZM781.604 1106.54C781.604 1286.22 927.776 1432.4 1107.46 1432.4C1287.1 1432.4 1433.28 1286.22 1433.28 1106.54C1433.28 926.812 1287.1 780.682 1107.46 780.682C927.734 780.682 781.604 926.812 781.604 1106.54Z" fill="#09565B" fill-opacity="0.16"/>
</g>
<defs>
<radialGradient id="paint0_radial_528_41" cx="0" cy="0" r="1" gradientUnits="userSpaceOnUse" gradientTransform="translate(1107.46 1106.54) rotate(90) scale(1150.25)">
<stop offset="0.166667" stop-color="#005C62"/>
<stop offset="0.463542" stop-color="#0C656A" stop-opacity="0.5"/>
<stop offset="0.901042" stop-color="#1C7176" stop-opacity="0.19"/>
</radialGradient>
<radialGradient id="paint1_radial_528_41" cx="0" cy="0" r="1" gradientUnits="userSpaceOnUse" gradientTransform="translate(1107.46 1106.54) rotate(90) scale(1795.19)">
<stop offset="0.166667" stop-color="#005C62"/>
<stop offset="0.463542" stop-color="#0C656A" stop-opacity="0.5"/>
<stop offset="0.901042" stop-color="#1C7176" stop-opacity="0.19"/>
</radialGradient>
<clipPath id="clip0_528_41">
<rect width="683.049" height="683.049" fill="white" transform="translate(765.937 765.015)"/>
</clipPath>
</defs>
</svg>
