<svg width="1311" height="264" viewBox="0 0 1311 264" fill="none" xmlns="http://www.w3.org/2000/svg">
<path fill-rule="evenodd" clip-rule="evenodd" d="M0.00242851 84.5586H10.559V60.0299H22.7741V46.7943H35.2528V36.5389H46.6723V24.5234H59.146V12.0255H82.6636V0H119.802V29.2661H129.674V42.4791V57.2522H141.439V77.8533H152.083V89.3858H162.957V98.3214H172.904V108.789H183.774V119.68H204.263V131.508H218.958H232.1V141.433H261.265V178.139H248.284V202.42H236.069V215.656H223.588V225.911H212.171V237.927H199.697V250.425H178.294V264H82.6614V250.425H59.1435V237.927H46.6697V225.911H35.2504V215.656H22.7715V202.42H10.5565V178.139H0V84.5586H0.00242851ZM155.216 155.971V108.027H106.054V155.971H155.216Z" fill="#09565B"/>
<path fill-rule="evenodd" clip-rule="evenodd" d="M28.9961 95.0853H37.2125V75.9969H46.7195V65.6942H56.433V57.7114H65.3209V48.3635H75.0294V38.6357H93.3324V29.2778H119.836H129.709V42.4908V57.2639H141.474V77.8648H152.118V89.3974H162.992V98.3329H172.939V108.801H183.81V119.691H204.298V131.521H218.993H232.135V141.447H232.34V167.923H222.235V186.821H212.729V197.124H203.015V205.105H194.129V214.455H184.421V224.183H167.765V234.748H93.3324V224.183H75.0294V214.455H65.3209V205.105H56.433V197.124H46.7195V186.821H37.2125V167.923H28.9961V95.0882V95.0853ZM106.087 168.185V155.982H93.5732V108.039H106.087V95.8355H155.248V108.039H167.759V155.982H155.248V168.185H106.087Z" fill="#FF0000"/>
<path d="M725.76 192.175C715.095 192.175 705.572 189.573 697.194 184.364C688.816 179.155 682.187 172.033 677.311 162.995C672.439 153.961 670 143.696 670 132.209C670 120.722 672.439 110.499 677.311 101.537C682.187 92.577 688.816 85.534 697.194 80.4C705.572 75.27 715.095 72.705 725.76 72.705C734.291 72.705 741.756 74.313 748.153 77.531C754.554 80.745 759.735 85.264 763.693 91.085V24H792.943V189.419H763.693V173.109C760.034 178.164 755.2 182.605 749.183 186.434C743.166 190.263 735.355 192.175 725.76 192.175ZM731.93 166.445C741.375 166.445 749.108 163.268 755.125 156.912C761.142 150.559 764.152 142.402 764.152 132.445C764.152 122.492 761.142 114.335 755.125 107.975C749.108 101.619 741.375 98.442 731.93 98.442C722.638 98.442 714.946 101.584 708.851 107.862C702.755 114.144 699.711 122.26 699.711 132.216C699.711 142.173 702.759 150.367 708.851 156.799C714.946 163.234 722.638 166.448 731.93 166.448V166.445ZM877.045 192.175C866.078 192.175 856.211 189.648 847.453 184.596C838.694 179.544 831.759 172.535 826.656 163.572C821.553 154.613 819.002 144.236 819.002 132.442C819.002 120.647 821.591 110.27 826.772 101.311C831.953 92.352 838.921 85.346 847.68 80.291C856.439 75.236 866.306 72.708 877.276 72.708C888.09 72.708 897.882 75.236 906.641 80.291C915.4 85.346 922.334 92.352 927.437 101.311C932.54 110.27 935.092 120.647 935.092 132.442C935.092 144.236 932.54 154.613 927.437 163.572C922.334 172.535 915.362 179.541 906.525 184.596C897.688 189.648 887.863 192.175 877.045 192.175ZM877.045 166.674C884.662 166.674 891.291 163.801 896.927 158.059C902.564 152.314 905.384 143.775 905.384 132.442C905.384 121.108 902.564 112.569 896.927 106.824C891.291 101.082 884.74 98.21 877.276 98.21C869.506 98.21 862.84 101.082 857.278 106.824C851.716 112.566 848.937 121.108 848.937 132.442C848.937 143.778 851.72 152.314 857.278 158.059C862.84 163.801 869.428 166.674 877.045 166.674ZM997.694 83.707C999.73 81.842 1001.98 80.165 1004.45 78.682C1011.08 74.699 1018.89 72.708 1027.88 72.708C1041.9 72.708 1052.79 77.152 1060.56 86.036C1068.33 94.917 1072.21 107.938 1072.21 125.091V189.422H1042.96V127.851C1042.96 118.048 1040.98 110.544 1037.02 105.335C1033.06 100.126 1026.89 97.523 1018.51 97.523C1010.29 97.523 1003.54 100.433 998.286 106.254L997.698 106.923V83.707H997.694ZM1142.6 192.175C1128.42 192.175 1117.49 187.735 1109.8 178.851C1102.11 169.966 1098.26 156.946 1098.26 139.792V75.465H1127.28V137.036C1127.28 146.839 1129.27 154.343 1133.23 159.552C1137.18 164.761 1143.43 167.364 1151.96 167.364C1160.04 167.364 1166.7 164.45 1171.96 158.633C1177.22 152.813 1179.85 144.694 1179.85 134.279V75.465H1209.09V189.419H1179.85V172.173C1176.42 177.956 1171.73 182.635 1165.79 186.201C1159.17 190.184 1151.43 192.175 1142.6 192.175ZM1289.53 189.419C1277.65 189.419 1268.13 186.509 1260.97 180.688C1253.81 174.871 1250.22 164.532 1250.22 149.674V100.047H1230.8V75.465H1250.22V44.908H1279.48V75.465H1310.1V100.047H1279.48V149.903C1279.48 155.416 1280.66 159.207 1283.02 161.277C1285.38 163.343 1289.46 164.378 1295.25 164.378H1309.42V189.422H1289.54L1289.53 189.419Z" fill="#005C62"/>
<path d="M960.989 189.499V75.5449H990.238V189.499H960.989Z" fill="#FF0000"/>
<path d="M531.004 239.26V74.7599H560.256V91.0698C563.916 86.0146 568.75 81.5742 574.767 77.7418C580.784 73.9128 588.592 72 598.19 72C608.854 72 618.378 74.6028 626.756 79.8117C635.134 85.0206 641.763 92.1424 646.638 101.177C651.51 110.215 653.95 120.475 653.95 131.966C653.95 143.453 651.51 153.676 646.638 162.636C641.763 171.595 635.134 178.642 626.756 183.772C618.378 188.902 608.854 191.468 598.19 191.468C589.658 191.468 582.191 189.859 575.793 186.645C569.396 183.427 564.215 178.911 560.253 173.091V239.26H531H531.004ZM592.02 165.737C601.312 165.737 609.004 162.598 615.099 156.32C621.194 150.039 624.242 141.92 624.242 131.966C624.242 122.009 621.194 113.815 615.099 107.383C609.004 100.948 601.312 97.7338 592.02 97.7338C582.575 97.7338 574.842 100.91 568.822 107.267C562.805 113.624 559.794 121.78 559.794 131.737C559.794 141.694 562.805 149.851 568.822 156.207C574.839 162.564 582.571 165.741 592.02 165.741V165.737Z" fill="#005C62"/>
<path d="M362.5 24.5H335L378 192.5H399L424.5 98.5L450.5 192.5H471L514.5 24.5H486L460.5 120L434.5 24.5H414.5L388.5 120L362.5 24.5Z" fill="#005C62"/>
</svg>
