<svg width="976" height="188" viewBox="0 0 976 188" fill="none" xmlns="http://www.w3.org/2000/svg">
<path d="M390.76 168.175C380.095 168.175 370.572 165.573 362.194 160.364C353.816 155.155 347.187 148.033 342.311 138.995C337.439 129.961 335 119.696 335 108.209C335 96.722 337.439 86.499 342.311 77.537C347.187 68.577 353.816 61.534 362.194 56.4C370.572 51.27 380.095 48.705 390.76 48.705C399.291 48.705 406.756 50.313 413.153 53.531C419.554 56.745 424.735 61.264 428.693 67.085V0H457.943V165.419H428.693V149.109C425.034 154.164 420.2 158.605 414.183 162.434C408.166 166.263 400.355 168.175 390.76 168.175ZM396.93 142.445C406.375 142.445 414.108 139.268 420.125 132.912C426.142 126.559 429.152 118.402 429.152 108.445C429.152 98.492 426.142 90.335 420.125 83.975C414.108 77.619 406.375 74.442 396.93 74.442C387.638 74.442 379.946 77.584 373.851 83.862C367.755 90.144 364.711 98.26 364.711 108.216C364.711 118.173 367.759 126.367 373.851 132.799C379.946 139.234 387.638 142.448 396.93 142.448V142.445ZM542.045 168.175C531.078 168.175 521.211 165.648 512.453 160.596C503.694 155.544 496.759 148.535 491.656 139.572C486.553 130.613 484.002 120.236 484.002 108.442C484.002 96.647 486.591 86.27 491.772 77.311C496.953 68.352 503.921 61.346 512.68 56.291C521.439 51.236 531.306 48.708 542.276 48.708C553.09 48.708 562.882 51.236 571.641 56.291C580.4 61.346 587.334 68.352 592.437 77.311C597.54 86.27 600.092 96.647 600.092 108.442C600.092 120.236 597.54 130.613 592.437 139.572C587.334 148.535 580.362 155.541 571.525 160.596C562.688 165.648 552.863 168.175 542.045 168.175ZM542.045 142.674C549.662 142.674 556.291 139.801 561.927 134.059C567.564 128.314 570.384 119.775 570.384 108.442C570.384 97.108 567.564 88.569 561.927 82.824C556.291 77.082 549.74 74.21 542.276 74.21C534.506 74.21 527.84 77.082 522.278 82.824C516.716 88.566 513.937 97.108 513.937 108.442C513.937 119.778 516.72 128.314 522.278 134.059C527.84 139.801 534.428 142.674 542.045 142.674ZM662.694 59.707C664.73 57.842 666.985 56.165 669.452 54.682C676.077 50.699 683.888 48.708 692.878 48.708C706.896 48.708 717.789 53.152 725.559 62.036C733.329 70.917 737.212 83.938 737.212 101.091V165.422H707.963V103.851C707.963 94.048 705.979 86.544 702.021 81.335C698.059 76.126 691.889 73.523 683.511 73.523C675.285 73.523 668.542 76.433 663.286 82.254L662.698 82.923V59.707H662.694ZM807.595 168.175C793.424 168.175 782.494 163.735 774.802 154.851C767.11 145.966 763.261 132.946 763.261 115.792V51.465H792.283V113.036C792.283 122.839 794.267 130.343 798.225 135.552C802.183 140.761 808.431 143.364 816.962 143.364C825.038 143.364 831.704 140.45 836.96 134.633C842.216 128.813 844.846 120.694 844.846 110.279V51.465H874.095V165.419H844.846V148.173C841.418 153.956 836.729 158.635 830.79 162.201C824.165 166.184 816.429 168.175 807.595 168.175ZM954.534 165.419C942.654 165.419 933.134 162.509 925.974 156.688C918.814 150.871 915.224 140.532 915.224 125.674V76.047H895.805V51.465H915.224V20.908H944.484V51.465H975.104V76.047H944.484V125.903C944.484 131.416 945.664 135.207 948.024 137.277C950.384 139.343 954.464 140.378 960.254 140.378H974.424V165.422H954.544L954.534 165.419Z" fill="#005C62"/>
<path d="M625.989 165.499V51.5449H655.238V165.499H625.989Z" fill="#FF0000"/>
<path d="M183.004 188V23.5002H212.256V39.8101C215.916 34.7549 220.75 30.3145 226.767 26.4821C232.784 22.6531 240.592 20.7403 250.19 20.7403C260.854 20.7403 270.378 23.3431 278.756 28.552C287.134 33.7609 293.763 40.8827 298.638 49.9172C303.51 58.9551 305.95 69.2158 305.95 80.706C305.95 92.193 303.51 102.416 298.638 111.376C293.763 120.335 287.134 127.382 278.756 132.512C270.378 137.642 260.854 140.208 250.19 140.208C241.658 140.208 234.191 138.599 227.793 135.385C221.396 132.167 216.215 127.651 212.253 121.831V188H183H183.004ZM244.02 114.477C253.312 114.477 261.004 111.338 267.099 105.06C273.194 98.779 276.242 90.66 276.242 80.706C276.242 70.7494 273.194 62.5552 267.099 56.1235C261.004 49.6883 253.312 46.4741 244.02 46.4741C234.575 46.4741 226.842 49.6507 220.822 56.0073C214.805 62.3639 211.794 70.5206 211.794 80.477C211.794 90.434 214.805 98.591 220.822 104.947C226.839 111.304 234.571 114.481 244.02 114.481V114.477Z" fill="#005C62"/>
<path d="M27.5 0.5H0L43 168.5H64L89.5 74.5L115.5 168.5H136L179.5 0.5H151L125.5 96L99.5 0.5H79.5L53.5 96L27.5 0.5Z" fill="#005C62"/>
</svg>
