<svg width="2272" height="2272" viewBox="0 0 2272 2272" fill="none" xmlns="http://www.w3.org/2000/svg">
<g opacity="0.7">
<circle cx="1136" cy="1136" r="861.006" fill="url(#paint0_radial_528_2)"/>
<circle cx="1136" cy="1136" r="1136" fill="url(#paint1_radial_528_2)"/>
<g clip-path="url(#clip0_528_2)">
<path d="M1309.85 1122.98C1309.85 1091.15 1298.4 1069.13 1288.61 1051.98L1285.61 1047.1C1273.71 1027.96 1263.32 1011.15 1263.32 991.559C1263.32 967.918 1281.26 945.852 1306.55 945.852C1307.3 945.852 1308.01 945.927 1308.72 945.965L1309.89 946.077C1262.46 902.514 1200.39 878.377 1135.99 878.455C1093.31 878.433 1051.3 889.031 1013.73 909.293C976.168 929.555 944.236 958.845 920.814 994.524C926.818 994.712 932.56 994.862 937.401 994.862C964.307 994.862 1006 991.597 1006 991.597C1019.88 990.771 1021.53 1011.15 1007.65 1012.8C1007.65 1012.8 993.728 1014.45 978.192 1015.24L1072.01 1294.21L1128.3 1125.12L1088.14 1015.2C1074.3 1014.38 1061.16 1012.76 1061.16 1012.76C1047.28 1011.94 1048.93 990.696 1062.78 991.522C1062.78 991.522 1105.33 994.787 1130.62 994.787C1157.57 994.787 1199.3 991.522 1199.3 991.522C1213.18 990.696 1214.8 1011.11 1200.91 1012.76C1200.91 1012.76 1186.95 1014.38 1171.45 1015.2L1264.52 1292.03L1290.19 1206.21L1292.21 1199.72C1302.35 1167.45 1309.81 1143.62 1309.81 1122.94L1309.85 1122.98ZM878.447 1136C878.444 1184.36 892.057 1231.75 917.727 1272.73C943.396 1313.72 980.087 1346.65 1023.6 1367.76L900.7 1031.15C885.983 1064.14 878.4 1099.87 878.447 1136V1136Z" fill="#09565B" fill-opacity="0.16"/>
<path d="M1063.22 1383.04L1140.53 1158.52L1219.67 1375.42C1220.19 1376.66 1220.79 1377.82 1221.51 1378.95C1170.49 1396.92 1115.1 1398.35 1063.22 1383.04V1383.04ZM1361.93 1012.43C1363.06 1020.65 1363.69 1029.43 1363.69 1038.92C1363.69 1065.04 1358.82 1094.42 1344.11 1131.16L1265.45 1358.57C1323.49 1324.85 1366.07 1269.79 1384.1 1205.13C1402.13 1140.46 1394.19 1071.32 1361.97 1012.43H1361.93Z" fill="#09565B" fill-opacity="0.16"/>
<path fill-rule="evenodd" clip-rule="evenodd" d="M835.789 1136C835.789 970.471 970.471 835.789 1136 835.789C1301.49 835.789 1436.21 970.471 1436.21 1136C1436.21 1301.53 1301.49 1436.21 1136 1436.21C970.471 1436.21 835.789 1301.53 835.789 1136ZM849.561 1136C849.561 1293.95 978.052 1422.44 1136 1422.44C1293.91 1422.44 1422.4 1293.95 1422.4 1136C1422.4 978.014 1293.91 849.561 1136 849.561C978.014 849.561 849.561 978.014 849.561 1136Z" fill="#09565B" fill-opacity="0.16"/>
</g>
</g>
<defs>
<radialGradient id="paint0_radial_528_2" cx="0" cy="0" r="1" gradientUnits="userSpaceOnUse" gradientTransform="translate(1136 1136) rotate(90) scale(861.006)">
<stop offset="0.536458" stop-color="#156B71" stop-opacity="0"/>
<stop offset="0.536558" stop-color="#136A6F" stop-opacity="0.23"/>
<stop offset="0.90625" stop-color="#1C7176" stop-opacity="0"/>
</radialGradient>
<radialGradient id="paint1_radial_528_2" cx="0" cy="0" r="1" gradientUnits="userSpaceOnUse" gradientTransform="translate(1136 1136) rotate(90) scale(1136)">
<stop offset="0.661458" stop-color="#196E74" stop-opacity="0"/>
<stop offset="0.661558" stop-color="#0C656A" stop-opacity="0.15"/>
<stop offset="0.958333" stop-color="#1C7176" stop-opacity="0"/>
</radialGradient>
<clipPath id="clip0_528_2">
<rect width="600.423" height="600.423" fill="white" transform="translate(835.789 835.789)"/>
</clipPath>
</defs>
</svg>
